<?xml version="1.0" standalone="no"?>
<!DOCTYPE svg PUBLIC "-//W3C//DTD SVG 20010904//EN"
 "http://www.w3.org/TR/2001/REC-SVG-20010904/DTD/svg10.dtd">
<svg version="1.0" xmlns="http://www.w3.org/2000/svg"
 width="669.000000pt" height="999.000000pt" viewBox="0 0 669.000000 999.000000"
 preserveAspectRatio="xMidYMid meet">

<g transform="translate(0.000000,999.000000) scale(0.100000,-0.100000)"
fill="#000000" stroke="none">
<path d="M3981 9848 c293 -235 500 -577 576 -953 26 -128 26 -475 0 -592 -63
-287 -198 -538 -404 -754 -167 -173 -332 -293 -561 -408 -69 -35 -120 -66
-117 -72 4 -5 151 -177 327 -382 l320 -372 -5 -110 c-8 -155 -38 -300 -100
-482 l-31 -93 -768 0 -768 0 0 -73 c0 -41 -3 -122 -6 -180 l-7 -106 24 -5 c13
-2 98 -17 189 -31 594 -94 916 -248 1038 -493 34 -69 37 -83 40 -176 3 -93 -4
-141 -93 -611 -182 -965 -345 -1756 -390 -1890 -59 -178 -168 -338 -299 -442
-247 -194 -539 -263 -1120 -263 -710 0 -1239 82 -1595 246 -41 19 -76 32 -78
30 -2 -2 -17 -49 -33 -105 -60 -208 -101 -479 -115 -757 -6 -123 -5 -134 15
-174 141 -277 903 -483 2065 -560 710 -46 1810 -46 2520 0 1162 77 1924 283
2065 560 20 40 21 51 15 174 -34 676 -219 1216 -563 1646 -112 139 -221 243
-436 414 -714 571 -1128 1109 -1324 1726 -78 244 -110 468 -119 823 l-6 247
515 0 515 0 41 89 c83 179 132 373 132 526 l0 72 -575 378 c-317 209 -574 382
-573 385 2 4 45 42 95 84 490 410 684 1103 482 1721 -46 141 -148 337 -238
456 -139 185 -360 373 -553 470 -75 38 -120 55 -97 37z"/>
</g>
</svg>
