<?xml version="1.0" standalone="no"?>
<!DOCTYPE svg PUBLIC "-//W3C//DTD SVG 20010904//EN"
 "http://www.w3.org/TR/2001/REC-SVG-20010904/DTD/svg10.dtd">
<svg version="1.0" xmlns="http://www.w3.org/2000/svg"
 width="153.000000pt" height="153.000000pt" viewBox="0 0 153.000000 153.000000"
 preserveAspectRatio="xMidYMid meet">
<metadata>
Created by potrace 1.15, written by Peter Selinger 2001-2017
</metadata>
<g transform="translate(0.000000,153.000000) scale(0.100000,-0.100000)"
fill="#000000" stroke="none">
<path d="M190 1420 l0 -100 60 -43 61 -42 -6 -95 c-3 -52 -9 -110 -12 -127 -5
-31 -4 -33 25 -33 32 0 61 20 137 92 74 71 138 100 222 100 81 -1 136 -19 212
-71 l57 -39 -3 27 c-1 14 -4 52 -6 83 l-4 58 63 47 64 48 0 98 0 97 -100 0
-100 0 0 -55 0 -55 -65 0 -65 0 0 55 0 55 -105 0 -105 0 0 -55 0 -55 -65 0
-65 0 0 55 0 55 -100 0 -100 0 0 -100z"/>
<path d="M1190 1315 l0 -205 120 0 120 0 0 30 0 30 -78 0 c-43 0 -81 2 -83 4
-2 2 -2 29 -1 60 l4 56 69 0 69 0 0 30 0 30 -70 0 -70 0 0 55 0 55 81 0 80 0
-3 28 -3 27 -117 3 -118 3 0 -206z"/>
<path d="M1269 965 c-82 -26 -139 -110 -139 -206 0 -44 24 -116 48 -142 44
-48 141 -75 226 -63 42 7 46 10 46 36 l0 28 -72 -1 c-83 -2 -118 14 -145 67
-21 41 -20 125 2 163 33 55 106 80 176 61 23 -7 28 -4 33 19 4 14 3 30 -2 35
-17 17 -124 19 -173 3z"/>
<path d="M286 913 c-2 -10 -28 -188 -58 -396 l-53 -377 -32 0 -33 0 0 -65 0
-65 490 0 490 0 0 65 0 65 -362 1 -363 0 77 23 c107 32 183 80 240 155 108
140 119 349 25 487 -41 61 -94 103 -143 114 -37 8 -64 3 -36 -8 24 -8 79 -61
85 -81 7 -29 -19 -90 -54 -127 -31 -32 -32 -36 -30 -104 2 -66 1 -72 -28 -100
-20 -20 -39 -30 -60 -30 -30 0 -31 1 -31 47 0 94 -20 172 -58 221 -40 53 -53
97 -42 146 4 19 5 37 2 40 -10 11 -21 6 -26 -11z"/>
<path d="M1200 215 l0 -205 40 0 40 0 0 90 0 90 70 0 70 0 0 30 c0 29 0 29
-67 32 l-68 3 -3 53 -3 52 75 0 76 0 0 30 0 30 -115 0 -115 0 0 -205z"/>
</g>
</svg>
